<?xml version="1.0" ?><svg id="Layer_1" style="enable-background:new 0 0 128 128;" version="1.1" viewBox="0 0 128 128" xml:space="preserve" xmlns="http://www.w3.org/2000/svg" xmlns:xlink="http://www.w3.org/1999/xlink"><style type="text/css">
	.st0{fill:none;stroke:#1D1952;stroke-width:4;stroke-linecap:round;stroke-miterlimit:10;}
	.st1{fill:#F73959;}
	.st2{opacity:0.5;fill:#C02344;}
	.st3{fill:none;stroke:#FFFFFF;stroke-width:4;stroke-linecap:round;stroke-linejoin:round;stroke-miterlimit:10;}
	.st4{fill:#F95F80;}
	.st5{fill:#FFFFFF;}
	.st6{fill:#1D1952;}
	.st7{fill:#EF8FA9;}
	.st8{fill:none;stroke:#AAAAE5;stroke-width:4;stroke-linecap:round;stroke-miterlimit:10;}
	.st9{fill:#AAAAE5;}
	.st10{fill:#FFCE00;}
	.st11{fill:#8E072B;}
	.st12{opacity:0.5;fill:#F73959;}
	.st13{fill:none;stroke:#C02344;stroke-width:4;stroke-linecap:round;stroke-linejoin:round;stroke-miterlimit:10;}
	.st14{fill:none;stroke:#FFAA00;stroke-width:4;stroke-linecap:round;stroke-linejoin:round;stroke-miterlimit:10;}
	.st15{fill:#FFAA00;}
	.st16{fill:none;stroke:#FFFFFF;stroke-width:3;stroke-linecap:round;stroke-linejoin:round;stroke-miterlimit:10;}
	.st17{fill:none;stroke:#1D1952;stroke-width:3;stroke-linecap:round;stroke-miterlimit:10;}
	.st18{fill:none;stroke:#C02344;stroke-width:6;stroke-linecap:round;stroke-linejoin:round;stroke-miterlimit:10;}
	.st19{fill:none;stroke:#AAAAE5;stroke-width:4;stroke-linecap:round;stroke-linejoin:round;stroke-miterlimit:10;}
	.st20{fill:#E87498;}
	.st21{fill:none;stroke:#1D1952;stroke-width:4;stroke-miterlimit:10;}
	.st22{fill:none;stroke:#FFAA00;stroke-width:4;stroke-linecap:round;stroke-miterlimit:10;}
	.st23{fill:#7A61F7;}
	.st24{fill:none;stroke:#FFCE00;stroke-width:4;stroke-linecap:round;stroke-miterlimit:10;}
</style><g><path class="st10" d="M10.2,90.1c0,0-6.2,4.1-7.6,12.6c7.7,3.9,16.6,0.7,16.6,0.7l1.5-8.8L10.2,90.1z"/><path class="st1" d="M101,17c-23-7-35,10-35,10S54,10,31,17C2,25.8-1,64,24,86c19.1,16.8,33.5,23.7,39.3,26c1.8,0.7,3.7,0.7,5.5,0   c5.8-2.3,20.2-9.2,39.3-26C133,64,130,25.8,101,17z"/><path class="st2" d="M122.3,36.3c2.6,14.2-2.7,30.8-16.3,42.7c-7.9,6.9-15.9,12.6-22.7,16.8c-10.3,6.5-23.3,6.9-34.1,1.3   C40.8,92.8,30.7,86.7,22,79c-6.7-5.9-11.3-12.9-14-20.2c2,9.7,7.3,19.5,16,27.2c19.1,16.8,33.5,23.7,39.3,26c1.8,0.7,3.7,0.7,5.5,0   c5.8-2.3,20.2-9.2,39.3-26C123.8,72.1,128.4,51.6,122.3,36.3z"/><path class="st3" d="M100.7,25.4c4.8,1.9,8.7,4.9,11.5,8.9"/><path class="st3" d="M90.2,23.3c0.9,0,1.9,0.1,2.8,0.2"/><path class="st3" d="M43.7,23.4c5.1,0.4,9,2.4,11.6,4.3"/><path class="st3" d="M33.3,24.7c0.7-0.2,1.4-0.4,2.1-0.6"/><path class="st11" d="M74.6,77c1.9,0,3.4,1.8,3,3.7C75.9,87.7,69.6,93,62,93c-7.5,0-13.8-5.2-15.5-12.2c-0.5-1.9,1-3.8,3-3.8H74.6z   "/><path class="st12" d="M74.6,77c1.9,0,3.4,1.8,3,3.7C75.9,87.7,69.6,93,62,93c-7.5,0-13.8-5.2-15.5-12.2c-0.5-1.9,1-3.8,3-3.8H74.6z   "/><path class="st6" d="M55,82c0,3.9,3.1,7,7,7s7-3.1,7-7c0-2-0.8-3.7-2.1-5h-9.8C55.8,78.3,55,80,55,82z"/><path class="st5" d="M59,83h-3c-1.1,0-2-0.9-2-2v-4h7v4C61,82.1,60.1,83,59,83z"/><path class="st5" d="M68,86c-4,0.5-8,0.5-12,0c-1.1,0-2,0.9-2,2v2.8c2.4,1.4,5.1,2.2,8,2.2c2.9,0,5.6-0.8,8-2.1V88   C70,86.9,69.1,86,68,86z"/><path class="st5" d="M68,83h-3c-1.1,0-2-0.9-2-2v-4h7v4C70,82.1,69.1,83,68,83z"/><line class="st13" x1="33" x2="47" y1="41" y2="41"/><path class="st13" d="M73,39c4-2.5,8.2-4.2,13-5"/><path class="st14" d="M6.3,97.5c-1,1.5-1.8,3.5-2.2,5.9c7.7,3.9,15.1,0,15.1,0"/><path class="st0" d="M33.4,88.1c5.8-1.5,15-3.1,28.6-3.1c26.2,0,48.6,12.7,48.6,12.7"/><path class="st10" d="M7.5,87.2c0,0,18.7-10.9,25.9,0.3c7.5,11.9-12.8,22.1-12.8,22.1s-4.2-8.2-2.1-14.2   C14.8,95.5,7.5,87.2,7.5,87.2z"/><path class="st14" d="M20.7,109.6c0,0-4.8-11.9,0.9-19.5"/><path class="st5" d="M52.4,51.2c0,6.8-5.5,12.4-12.4,12.4S27.7,58,27.7,51.2"/><path class="st6" d="M42.2,51.2c0,3.4-2.8,6.2-6.2,6.2c-3.4,0-6.2-2.8-6.2-6.2"/><path class="st14" d="M7.5,87.2c0,0,5.6,6.9,11,8.2"/><line class="st0" x1="27.7" x2="52.4" y1="51.2" y2="51.2"/><path class="st5" d="M93.4,51.2c0,6.8-5.5,12.4-12.4,12.4S68.7,58,68.7,51.2"/><path class="st6" d="M83.2,51.2c0,3.4-2.8,6.2-6.2,6.2s-6.2-2.8-6.2-6.2"/><line class="st0" x1="68.7" x2="93.4" y1="51.2" y2="51.2"/></g></svg>
